<svg width="196" height="196" viewBox="0 0 196 196" fill="none" xmlns="http://www.w3.org/2000/svg">
<rect x="13.7812" y="13.7812" width="168.438" height="168.438" fill="#8C11BE"/>
<path d="M48.2344 50.1767V47.8516H62.5225L84.8865 95.2843L82.3239 101.175H72.2291L48.2344 50.1767ZM92.1082 78.7759H91.7976L86.5948 91.3316L79.9167 77.0708L92.1082 47.8516H106.862V101.175H92.1082V78.7759ZM48.2344 57.8496L62.5225 88.2314V101.175H48.2344V57.8496ZM127.577 100.942C122.918 100.942 119.786 99.5212 118.181 96.6794C117.456 95.4394 116.965 93.9409 116.706 92.1842C116.447 90.3756 116.318 88.1798 116.318 85.5963V61.6474H130.683V79.5509C130.683 82.2895 130.709 84.0978 130.761 84.9762C130.865 86.3197 131.02 87.2498 131.227 87.7664C131.434 88.3349 131.77 88.6965 132.236 88.8515C132.702 88.9549 133.531 89.0065 134.721 89.0065H135.498V98.617C133.427 100.167 130.787 100.942 127.577 100.942ZM132.935 117.141C130.243 117.141 127.085 116.986 123.462 116.676L118.958 116.211V106.212H129.363C131.227 106.212 133.039 106.161 134.799 106.057C136.041 105.954 136.947 105.696 137.517 105.282C138.138 104.921 138.5 104.275 138.604 103.345C138.708 102.105 138.759 100.787 138.759 99.3921V61.6474H153.125V96.8344C153.125 100.968 152.944 104.171 152.581 106.445C152.271 108.719 151.52 110.604 150.329 112.103C148.983 113.808 146.939 115.074 144.195 115.901C141.451 116.727 137.698 117.141 132.935 117.141Z" fill="white"/>
<path d="M52.9301 141.217C53.1796 142.338 53.3838 143.213 53.5425 143.841L53.7807 144.817H59.8375L55.0057 121.671H48.2344L50.9905 133.277L52.0113 137.516L52.9301 141.217Z" fill="white"/>
<path d="M61.4368 121.671L58.8847 133.244L61.2666 144.817H61.6409L61.9131 143.707L62.5937 140.78C62.6844 140.398 62.7752 139.995 62.8659 139.569C62.9793 139.142 63.0927 138.694 63.2061 138.223L63.5804 136.507L64.7373 131.427H64.9415C65.3272 133.087 65.7355 134.78 66.1665 136.507L67.1873 140.78L67.9018 143.707L68.174 144.817H73.9926L68.4122 121.671H61.4368Z" fill="white"/>
<path d="M74.6732 121.671L72.6316 133.042L75.4558 144.817H75.8641L76.1023 143.841L76.7488 141.217C76.9075 140.477 77.2025 139.243 77.6335 137.516L78.6543 133.277L81.4445 121.671H74.6732Z" fill="white"/>
<path d="M91.8758 132.941C91.9212 133.188 91.9439 133.603 91.9439 134.186V144.817H98.2388V134.589C98.2388 133.109 98.1594 131.954 98.0006 131.124C97.8645 130.294 97.5583 129.61 97.0819 129.072C96.5375 128.489 95.7208 128.063 94.632 127.794C93.5658 127.524 92.08 127.39 90.1745 127.39C87.7019 127.39 85.3993 127.592 83.267 127.995V132.369L85.0705 132.268C86.0006 132.178 87.01 132.134 88.0988 132.134C89.2331 132.134 89.9703 132.145 90.3106 132.167C90.8777 132.212 91.2633 132.29 91.4675 132.403C91.6943 132.515 91.8304 132.694 91.8758 132.941Z" fill="white"/>
<path d="M83.4372 143.774C84.1858 144.626 85.3427 145.052 86.9079 145.052C87.7019 145.052 88.3711 144.985 88.9155 144.85C89.4826 144.738 90.0157 144.492 90.5147 144.11V140.679H90.1745C89.8116 140.679 89.4713 140.656 89.1537 140.611C88.9269 140.589 88.7567 140.499 88.6433 140.342C88.5526 140.23 88.4845 140.084 88.4391 139.905C88.4165 139.726 88.4051 139.468 88.4051 139.131C88.4051 138.705 88.4165 138.425 88.4391 138.29C88.4618 137.886 88.6999 137.673 89.1537 137.651C89.3124 137.629 89.6527 137.617 90.1745 137.617H90.5147V134.623L87.6565 134.556C86.545 134.556 85.6489 134.645 84.9684 134.825C84.2878 134.982 83.7548 135.262 83.3691 135.666C82.9834 136.047 82.7112 136.574 82.5525 137.247C82.3937 137.898 82.3143 138.761 82.3143 139.838C82.3143 141.587 82.6886 142.899 83.4372 143.774Z" fill="white"/>
<path d="M108.332 119.82H102.037V144.817H108.332V119.82Z" fill="white"/>
<path d="M118.5 119.82H112.205V144.817H118.5V119.82Z" fill="white"/>
<path d="M131.935 134.556H129.553V137.617H137.855V136.272C137.855 134.298 137.798 132.818 137.685 131.831C137.594 130.844 137.322 130.036 136.869 129.408C136.369 128.691 135.586 128.175 134.521 127.861C133.477 127.547 131.979 127.39 130.029 127.39H129.553V131.663H130.029C130.46 131.663 130.789 131.696 131.016 131.763C131.243 131.808 131.424 131.932 131.561 132.134C131.809 132.492 131.935 133.3 131.935 134.556Z" fill="white"/>
<path d="M125.776 144.581C126.978 144.918 128.623 145.086 130.71 145.086C131.753 145.086 132.66 145.052 133.432 144.985C135.02 144.895 136.267 144.716 137.175 144.447V140.107L135.44 140.241C134.781 140.309 133.727 140.342 132.275 140.342C131.458 140.342 130.687 140.32 129.961 140.275C129.393 140.253 128.975 140.152 128.702 139.972C128.452 139.815 128.294 139.58 128.226 139.266C128.158 138.929 128.124 138.38 128.124 137.617V127.457C126.649 127.569 125.48 127.838 124.619 128.265C123.779 128.668 123.156 129.24 122.748 129.98C122.384 130.653 122.146 131.472 122.033 132.436C121.919 133.378 121.863 134.657 121.863 136.272C121.863 138.021 121.942 139.4 122.101 140.41C122.26 141.396 122.6 142.226 123.122 142.899C123.711 143.662 124.596 144.222 125.776 144.581Z" fill="white"/>
<path d="M143.019 127.659H139.821V132.403H153.125V127.659H149.314V122.68H143.019V127.659Z" fill="white"/>
<path d="M149.314 133.748H143.019V144.817H149.314V133.748Z" fill="white"/>
</svg>
